<?xml version="1.0" encoding="utf-8"?>
<!-- Generator: Adobe Illustrator 25.4.1, SVG Export Plug-In . SVG Version: 6.00 Build 0)  -->
<svg version="1.1" id="图层_1" xmlns="http://www.w3.org/2000/svg" xmlns:xlink="http://www.w3.org/1999/xlink" x="0px" y="0px"
	 viewBox="0 0 200 200" style="enable-background:new 0 0 200 200;" xml:space="preserve">
<style type="text/css">
	.st0{fill:#7B1285;}
</style>
<path class="st0" d="M103.3,31.7l16.3,33.1c1.2,2.5,3.6,4.2,6.3,4.6l36.5,5.3c4.6,0.6,7.7,4.9,7.1,9.4c-0.3,1.8-1.1,3.5-2.5,4.8
	l-26.4,25.8c-2,1.9-2.9,4.7-2.4,7.4l6.2,36.3c0.8,4.5-2.2,8.9-6.8,9.6c-1.8,0.3-3.7,0-5.4-0.9L99.7,150c-2.4-1.3-5.3-1.3-7.8,0
	l-32.7,17.2c-4.1,2.2-9.1,0.6-11.3-3.4c-0.9-1.7-1.2-3.6-0.8-5.4l6.2-36.4c0.5-2.7-0.4-5.5-2.4-7.4L24.6,88.9
	c-3.3-3.2-3.4-8.5-0.2-11.8c1.3-1.3,3-2.2,4.8-2.5l36.5-5.3c2.7-0.4,5.1-2.1,6.3-4.6l16.4-33.1c2-4.1,7-5.9,11.1-3.9
	C101.2,28.6,102.5,30,103.3,31.7z"/>
</svg>
