<?xml version="1.0" encoding="utf-8"?>
<svg version="1.1" id="图层_1" xmlns="http://www.w3.org/2000/svg" xmlns:xlink="http://www.w3.org/1999/xlink" x="0px" y="0px"
	 viewBox="0 0 200 200" style="enable-background:new 0 0 200 200;" xml:space="preserve">
<style type="text/css">
	.st0{fill:#E64010;}
</style>
<path class="st0" d="M104.2,52.4c4.4-5.5,9.1-10.4,14-14.8c4.3-3.6,9.1-6.9,14.5-9.8c5.4-2.9,11-4.2,16.9-3.8
	c8.3,0.7,15.2,2.6,20.7,5.9c5.5,3.3,9.9,7.4,13.2,12.4c3.3,5,5.5,10.7,6.7,17c1.2,6.3,1.6,12.8,1.2,19.5c-0.4,6.7-1.6,13-3.5,19.1
	c-1.9,6.1-4.3,11.7-7.2,17c-2.9,5.3-6,10.1-9.5,14.6c-3.5,4.5-6.9,8.5-10.4,12.1c-5.3,5.5-10.9,10.6-16.7,15.3
	c-5.8,4.7-11.3,8.8-16.6,12.2c-5.3,3.4-10.1,6.1-14.4,8.1s-7.7,3-10.1,3c-2.7,0.1-6.1-0.8-10.2-2.8c-4.1-2-8.7-4.7-13.6-8.1
	c-4.9-3.4-10.1-7.4-15.6-12.1s-10.9-9.6-16.2-14.8c-3.5-3.3-7.2-7.2-11.2-11.6c-4-4.4-7.8-9.2-11.3-14.5c-3.5-5.3-6.6-11-9.1-17.1
	c-2.5-6.1-3.9-12.7-4.2-19.6c-0.3-6.9,0.5-13.4,2.2-19.5c1.7-6.1,4.3-11.5,7.8-16.3s7.7-8.8,12.8-12.1s10.8-5.6,17.2-6.9
	c3.2-0.7,6.4-0.8,9.6-0.3c3.2,0.5,6.3,1.3,9.4,2.4c3.1,1.1,6,2.6,8.8,4.3s5.5,3.5,8,5.4C93.3,41,98.9,46.3,104.2,52.4z"/>
</svg>
